<!-- public/wave-multilayer-green.svg -->
<svg viewBox="0 0 1440 320" xmlns="http://www.w3.org/2000/svg" preserveAspectRatio="none">
  <path fill="#a2e2b8" fill-opacity="1" 
    d="M0,160L60,144C120,128,240,96,360,90.7C480,85,600,107,720,133.3C840,160,960,192,1080,176C1200,160,1320,96,1380,64L1440,32L1440,0L1380,0C1320,0,1200,0,1080,0C960,0,840,0,720,0C600,0,480,0,360,0C240,0,120,0,60,0L0,0Z" />
  <path fill="#70db9f" fill-opacity="0.8" 
    d="M0,224L48,213.3C96,203,192,181,288,160C384,139,480,117,576,128C672,139,768,181,864,192C960,203,1056,181,1152,170.7C1248,160,1344,160,1392,160L1440,160L1440,0L1392,0C1344,0,1248,0,1152,0C1056,0,960,0,864,0C768,0,672,0,576,0C480,0,384,0,288,0C192,0,96,0,48,0L0,0Z" />
  <path fill="#4CAF50" fill-opacity="1" 
    d="M0,288L48,266.7C96,245,192,203,288,181.3C384,160,480,160,576,176C672,192,768,224,864,213.3C960,203,1056,149,1152,144C1248,139,1344,181,1392,202.7L1440,224L1440,0L1392,0C1344,0,1248,0,1152,0C1056,0,960,0,864,0C768,0,672,0,576,0C480,0,384,0,288,0C192,0,96,0,48,0L0,0Z" />
</svg>
